<?xml version="1.0" encoding="utf-8" ?>
<svg xmlns="http://www.w3.org/2000/svg" xmlns:xlink="http://www.w3.org/1999/xlink" width="4909" height="5297">
	<path fill="#9A9EA6" transform="matrix(1.2932 0 0 1.29321 0.000488281 0)" d="M816.81 219.858C854.95 213.86 896.942 225.065 934.323 215.543L935.279 212.656C942.763 190.171 950.374 170.001 972.058 159.715C988.956 151.699 1012.33 153.214 1029.24 160.617C1058.49 173.419 1051.48 191.247 1064.68 212.979C1067.81 218.14 1072.64 217.506 1077.78 218.367C1078.52 217.793 1079.27 217.251 1079.99 216.647C1085.57 211.948 1088.52 206.953 1090.46 199.694C1092.81 203.777 1092.47 208.307 1092.63 212.959C1098.64 219.032 1109.24 218.105 1117 218.226C1236.19 220.079 1355.62 219.028 1474.84 219.171L2125.11 219.588L2626.75 219.263C2717 219.301 2807.62 221.318 2897.83 219.375Q2900.21 219.32 2902.59 219.141L2904.48 216.308C2912.35 215.521 2931.04 218.784 2941.69 218.747L3122.57 218.405C3145.49 218.429 3175.34 214.726 3197.43 219.839C3213.09 358.038 3207.01 506.442 3207.22 646.108L3208.48 1305.93L3208.42 3541.7L1499.67 3543.4L1005.98 3543.32C876.399 3543.17 743.268 3547.46 614.823 3527.07C610.562 3527.6 610.914 3527.34 607.337 3525.59C604.169 3519.96 604.135 3513.95 603.975 3507.52C602.958 3466.73 604.15 3425.34 603.846 3384.47Q602.238 3221.43 602.633 3058.38L602.841 2414.06L605.426 219.961C640.087 218.815 674.982 219.385 709.665 219.248C738.41 219.135 767.604 217.946 796.289 219.901C803.069 219.854 810.054 219.409 816.81 219.858ZM816.81 219.858C858.453 224.409 902.372 220.669 944.244 219.976C980.28 219.38 1016.34 221.004 1052.4 220.067L1053.18 369.963C1053.33 394.876 1051.72 421.756 1054.55 446.348L1057.46 450.084L1054.6 450.174C1049.61 486.019 1053.83 532.087 1052.71 569.504L980.844 569.57L980.592 574.323C979.674 586.784 980.371 598.677 981.789 611.057C991.628 623.226 999.713 632.439 1015.66 633.549C1020.56 633.891 1025.51 633.808 1030.42 633.647L1028.62 635.758L1029.42 637.77C1041.64 637.339 1051.26 633.905 1062.41 628.69C1065.74 625.931 1068.61 623.458 1070.79 619.512C1077.12 608.07 1078.73 587.539 1075.37 574.703C1073.18 574.953 1074.38 575.15 1071.99 573.218L1072.39 569.945L1075.43 569.391C1080.31 552.887 1076.66 473.353 1076.9 450.101L2905.79 449.805L2906.32 445.352C2904.6 393.853 2905.99 341.892 2906.09 290.34C2906.14 267.813 2908.1 243.022 2904.82 220.857L2902.59 219.141Q2900.21 219.32 2897.83 219.375C2807.62 221.318 2717 219.301 2626.75 219.263L2125.11 219.588L1474.84 219.171C1355.62 219.028 1236.19 220.079 1117 218.226C1109.24 218.105 1098.64 219.032 1092.63 212.959C1092.47 208.307 1092.81 203.777 1090.46 199.694C1088.52 206.953 1085.57 211.948 1079.99 216.647C1079.27 217.251 1078.52 217.793 1077.78 218.367C1072.64 217.506 1067.81 218.14 1064.68 212.979C1051.48 191.247 1058.49 173.419 1029.24 160.617C1012.33 153.214 988.956 151.699 972.058 159.715C950.374 170.001 942.763 190.171 935.279 212.656L934.323 215.543C896.942 225.065 854.95 213.86 816.81 219.858Z"/>
	<path fill="#FDFEFE" transform="matrix(1.2932 0 0 1.29321 0.000488281 0)" d="M979.122 449.676L1054.6 450.174C1049.61 486.019 1053.83 532.087 1052.71 569.504L980.844 569.57C975.692 544.436 979.112 478.691 979.122 449.676Z"/>
	<path fill="#FDFEFE" transform="matrix(1.2932 0 0 1.29321 0.000488281 0)" d="M607.505 448.28Q782.721 450.676 957.95 449.895Q958.334 509.78 958.039 569.666C840.954 569.128 723.637 572.281 606.584 569.355L607.505 448.28Z"/>
	<path fill="#FDFEFE" transform="matrix(1.2932 0 0 1.29321 0.000488281 0)" d="M816.81 219.858C858.453 224.409 902.372 220.669 944.244 219.976C980.28 219.38 1016.34 221.004 1052.4 220.067L1053.18 369.963C1053.33 394.876 1051.72 421.756 1054.55 446.348C1029.94 443.666 1003.72 445.274 978.907 445.055C978.677 405.01 982.007 362.869 977.953 323.077C971.386 317.978 965.37 314.417 957.821 311.269L958.428 361.711C957.164 389.466 958.163 417.757 958.135 445.573C841.232 442.552 724.129 447.873 607.177 444.036Q608.778 333.515 608.527 222.98C641.66 222.929 774.356 226.575 796.289 219.901C803.069 219.854 810.054 219.409 816.81 219.858Z"/>
	<path fill="#FDFEFE" transform="matrix(1.2932 0 0 1.29321 0.000488281 0)" d="M1076.9 450.101L2905.79 449.805L2905.88 569.715L1707.89 569.846C1497.15 569.793 1286.14 572.229 1075.43 569.391C1080.31 552.887 1076.66 473.353 1076.9 450.101Z"/>
	<path fill="#FDFEFE" transform="matrix(1.2932 0 0 1.29321 0.000488281 0)" d="M605.79 3161.17Q752.867 3163.04 899.952 3162.11L1389.74 3162.05L2905.92 3162.25L2905.83 3276.6C2878.71 3275.16 2851.04 3276.21 2823.85 3276.2L2670.58 3276.17L2204.72 3276.09L606.187 3275.78L605.79 3161.17Z"/>
	<path fill="#FDFEFE" transform="matrix(1.2932 0 0 1.29321 0.000488281 0)" d="M605.88 1314.03L2905.91 1315.52L2905.9 1427.4L2905.09 1428.62C2891.08 1433.2 2801.89 1429.82 2781.3 1429.84L2390.33 1429.97L605.672 1429.84L605.88 1314.03Z"/>
	<path fill="#FDFEFE" transform="matrix(1.2932 0 0 1.29321 0.000488281 0)" d="M606.659 821.418C633.343 819.89 661.057 821.629 687.828 821.847L840.548 822.507L1354.43 822.661L2905.99 822.611L2905.78 938.353L606.293 937.823L606.659 821.418Z"/>
	<path fill="#FDFEFE" transform="matrix(1.2932 0 0 1.29321 0.000488281 0)" d="M605.99 2175.28C697.988 2178.41 790.582 2176.21 882.658 2176.23L1385.46 2176.26L2906.06 2176.28L2906.15 2291.91L1460.25 2292L918.802 2291.94C814.525 2291.98 710.195 2293.03 605.928 2291.75L605.99 2175.28Z"/>
	<path fill="#FDFEFE" transform="matrix(1.2932 0 0 1.29321 0.000488281 0)" d="M605.764 1683.2C679.057 1685.56 752.703 1684.47 826.049 1684.93L1461.89 1684.01L2905.97 1684.42L2905.91 1799.38C2891.68 1802.63 2872.85 1800.39 2858.05 1800.33L2756.4 1800.06L2301.15 1800.17L1154.33 1800.19Q879.997 1802.09 605.662 1800.02L605.764 1683.2Z"/>
	<path fill="#FDFEFE" transform="matrix(1.2932 0 0 1.29321 0.000488281 0)" d="M606.735 572.03C723.296 577.364 840.904 574.262 957.606 574.286C958.643 595.102 960.953 612.154 976.306 626.862C989.871 639.857 1010.8 647.236 1028.88 645.291C1041.61 643.923 1053.6 638.771 1062.41 628.69C1065.74 625.931 1068.61 623.458 1070.79 619.512C1077.12 608.07 1078.73 587.539 1075.37 574.703C1230.32 571.67 1385.67 573.729 1540.66 573.706L2466.82 573.813C2613.13 573.84 2759.63 575.826 2905.92 574.12L2905.94 693.967L606.53 693.819L606.735 572.03Z"/>
	<path fill="#FDFEFE" transform="matrix(1.2932 0 0 1.29321 0.000488281 0)" d="M605.779 1927.27C850.157 1931.03 1094.89 1928.7 1339.3 1928.69L2906.19 1928.4L2906.06 2046.06L605.76 2045.66L605.779 1927.27Z"/>
	<path fill="#FDFEFE" transform="matrix(1.2932 0 0 1.29321 0.000488281 0)" d="M606.33 2667.79L2128.64 2668.2L2623.28 2668.19C2717.44 2668.21 2812.01 2666.23 2906.1 2669.36L2905.99 2785.95C2773.27 2787.51 2640.36 2785.93 2507.62 2785.95L1698.37 2785.93L1018.89 2786.02C881.375 2786.11 743.743 2787.45 606.245 2785.47L606.33 2667.79Z"/>
	<path fill="#FDFEFE" transform="matrix(1.2932 0 0 1.29321 0.000488281 0)" d="M607.926 2788.78C703.926 2792.56 800.589 2790.26 896.673 2790.16L1379.17 2790.01L2906.02 2790.31Q2906.4 2849.15 2905.85 2907.98L1625.51 2907.76L994.86 2907.98C865.36 2908.1 735.692 2909.38 606.213 2907.4C606.398 2886.67 602.648 2801.19 607.926 2788.78Z"/>
	<path fill="#FDFEFE" transform="matrix(1.2932 0 0 1.29321 0.000488281 0)" d="M606.276 2544.27C670.479 2543.43 734.787 2545.71 799.015 2545.77L1306.61 2545.71L2906.02 2545.94L2906.03 2664.12C2817.21 2662.18 2727.99 2663.96 2639.14 2663.94L2116.05 2663.91L606.201 2663.87L606.276 2544.27Z"/>
	<path fill="#FDFEFE" transform="matrix(1.2932 0 0 1.29321 0.000488281 0)" d="M606.393 942.311L2281.75 942.272L2681.71 942.605C2756.35 942.773 2831.2 944.554 2905.8 942.781L2905.82 1059.81C2905 1061.39 2905.64 1060.4 2903.27 1062.22L2902.52 1060.85L2901.94 1062.3L2899.78 1060.22L2899.04 1062.08C2828.37 1058.97 2756.57 1061.61 2685.81 1061.62L2272.18 1061.65L1204.67 1061.62C1005.1 1061.72 805.15 1064.82 605.637 1061.14L606.393 942.311Z"/>
	<path fill="#FDFEFE" transform="matrix(1.2932 0 0 1.29321 0.000488281 0)" d="M606.647 698.292C695.969 696.435 785.729 698.395 875.089 698.46L1395.32 698.682L2906.05 698.612L2905.98 817.821L606.522 817.389L606.647 698.292Z"/>
	<path fill="#FDFEFE" transform="matrix(1.2932 0 0 1.29321 0.000488281 0)" d="M605.718 1065.71L2905.81 1066.64L2905.77 1185.51L2883.33 1185.63L1513.3 1185.04L924.035 1185.81Q764.749 1186.46 605.466 1185.35L605.718 1065.71Z"/>
	<path fill="#FDFEFE" transform="matrix(1.2932 0 0 1.29321 0.000488281 0)" d="M606.19 2912.02L2074.94 2913.13L2622.35 2912.25C2716.87 2912.28 2811.58 2911.02 2906.07 2913.34L2905.89 3031.4C2890.11 3035.14 2868.42 3032.59 2852.15 3032.53L2750.78 3032.3L2321.86 3032.61L605.663 3031.71L606.19 2912.02Z"/>
	<path fill="#FDFEFE" transform="matrix(1.2932 0 0 1.29321 0.000488281 0)" d="M605.746 1558.51C670.3 1557.48 735.185 1559.83 799.794 1559.85L1290.61 1559.63L2905.87 1560.27C2906 1592.01 2909.71 1649.61 2904.92 1678.61L2901.22 1679.87L1437.14 1678.95L870.25 1680.21C782.105 1680.23 693.717 1681.51 605.597 1679.36L605.746 1558.51Z"/>
	<path fill="#FDFEFE" transform="matrix(1.2932 0 0 1.29321 0.000488281 0)" d="M605.853 1802.12C627.027 1801.58 648.505 1803.37 669.737 1803.54L815.059 1803.73L1331.14 1803.77L2905.98 1803.95L2906.1 1923.83L605.727 1923.68L605.853 1802.12Z"/>
	<path fill="#FDFEFE" transform="matrix(1.2932 0 0 1.29321 0.000488281 0)" d="M606.004 2294.18L2906.12 2295.72L2905.92 2416.04L1413.98 2415.78L907.709 2415.85Q756.862 2416.6 606.017 2415.43L606.004 2294.18Z"/>
	<path fill="#FDFEFE" transform="matrix(1.2932 0 0 1.29321 0.000488281 0)" d="M605.895 1433.51C863.795 1436.84 1122.01 1433.67 1379.94 1433.76L2905.9 1434.37C2905.96 1453.59 2909.23 1543.58 2904.5 1555.06L2897.51 1555.71L1393.96 1554.95L892.981 1555.46C797.28 1555.61 701.351 1557.21 605.675 1555.14L605.895 1433.51Z"/>
	<path fill="#FDFEFE" transform="matrix(1.2932 0 0 1.29321 0.000488281 0)" d="M605.856 3035.92L2177.35 3036.62C2420.11 3036.85 2663.23 3039.9 2905.95 3036.52L2905.9 3157.73C2827.07 3156.29 2747.98 3157.76 2669.13 3157.8L2202.71 3157.91L605.717 3157.61L605.856 3035.92Z"/>
	<path fill="#FDFEFE" transform="matrix(1.2932 0 0 1.29321 0.000488281 0)" d="M606.121 2418.52C670.944 2417.38 736.191 2419.77 801.08 2419.77L1315.57 2419.76L2905.99 2420.21L2906.02 2541.59L1358.79 2541.46L885.315 2541.73C792.441 2541.82 698.921 2544.35 606.133 2540.2L606.121 2418.52Z"/>
	<path fill="#FDFEFE" transform="matrix(1.2932 0 0 1.29321 0.000488281 0)" d="M605.853 2050.38L2905.98 2050.72L2906 2171.89L605.796 2171.63C606.401 2131.26 605.856 2090.76 605.853 2050.38Z"/>
	<path fill="#FDFEFE" transform="matrix(1.2932 0 0 1.29321 0.000488281 0)" d="M605.695 1188.49Q771.874 1191.15 938.069 1190.06L1511.94 1189.02L2905.85 1190.26L2905.89 1311.36C2890.51 1314.8 2869.66 1312.4 2853.84 1312.35L2742.74 1312.2L2303.92 1312.38L605.686 1312.23L605.695 1188.49Z"/>
	<path fill="#FDFEFE" transform="matrix(1.2932 0 0 1.29321 0.000488281 0)" d="M816.81 219.858C854.95 213.86 896.942 225.065 934.323 215.543L935.279 212.656C942.763 190.171 950.374 170.001 972.058 159.715C988.956 151.699 1012.33 153.214 1029.24 160.617C1058.49 173.419 1051.48 191.247 1064.68 212.979C1067.81 218.14 1072.64 217.506 1077.78 218.367C1078.52 217.793 1079.27 217.251 1079.99 216.647C1085.57 211.948 1088.52 206.953 1090.46 199.694C1092.81 203.777 1092.47 208.307 1092.63 212.959C1098.64 219.032 1109.24 218.105 1117 218.226C1236.19 220.079 1355.62 219.028 1474.84 219.171L2125.11 219.588L2626.75 219.263C2717 219.301 2807.62 221.318 2897.83 219.375Q2900.21 219.32 2902.59 219.141L2904.82 220.857C2908.1 243.022 2906.14 267.813 2906.09 290.34C2905.99 341.892 2904.6 393.853 2906.32 445.352L2905.79 449.805L1076.9 450.101C1076.66 473.353 1080.31 552.887 1075.43 569.391L1072.39 569.945L1071.99 573.218C1074.38 575.15 1073.18 574.953 1075.37 574.703C1078.73 587.539 1077.12 608.07 1070.79 619.512C1068.61 623.458 1065.74 625.931 1062.41 628.69C1051.26 633.905 1041.64 637.339 1029.42 637.77L1028.62 635.758L1030.42 633.647C1025.51 633.808 1020.56 633.891 1015.66 633.549C999.713 632.439 991.628 623.226 981.789 611.057C980.371 598.677 979.674 586.784 980.592 574.323L980.844 569.57L1052.71 569.504C1053.83 532.087 1049.61 486.019 1054.6 450.174L1057.46 450.084L1054.55 446.348C1051.72 421.756 1053.33 394.876 1053.18 369.963L1052.4 220.067C1016.34 221.004 980.28 219.38 944.244 219.976C902.372 220.669 858.453 224.409 816.81 219.858ZM816.81 219.858C858.453 224.409 902.372 220.669 944.244 219.976C980.28 219.38 1016.34 221.004 1052.4 220.067L1053.18 369.963C1053.33 394.876 1051.72 421.756 1054.55 446.348L1057.46 450.084L1054.6 450.174C1049.61 486.019 1053.83 532.087 1052.71 569.504L980.844 569.57L980.592 574.323C979.674 586.784 980.371 598.677 981.789 611.057C991.628 623.226 999.713 632.439 1015.66 633.549C1020.56 633.891 1025.51 633.808 1030.42 633.647L1028.62 635.758L1029.42 637.77C1041.64 637.339 1051.26 633.905 1062.41 628.69C1065.74 625.931 1068.61 623.458 1070.79 619.512C1077.12 608.07 1078.73 587.539 1075.37 574.703C1073.18 574.953 1074.38 575.15 1071.99 573.218L1072.39 569.945L1075.43 569.391C1080.31 552.887 1076.66 473.353 1076.9 450.101L2905.79 449.805L2906.32 445.352C2839.33 443.997 2772.17 445.03 2705.17 445.056L2346.13 445.062L1075.9 445.247C1075.82 413.54 1072.14 228.419 1077.78 218.367C1072.64 217.506 1067.81 218.14 1064.68 212.979C1051.48 191.247 1058.49 173.419 1029.24 160.617C1012.33 153.214 988.956 151.699 972.058 159.715C950.374 170.001 942.763 190.171 935.279 212.656L934.323 215.543C896.942 225.065 854.95 213.86 816.81 219.858Z"/>
	<path fill="#B5B5BA" transform="matrix(1.2932 0 0 1.29321 0.000488281 0)" d="M816.81 219.858C854.95 213.86 896.942 225.065 934.323 215.543L935.279 212.656C942.763 190.171 950.374 170.001 972.058 159.715C988.956 151.699 1012.33 153.214 1029.24 160.617C1058.49 173.419 1051.48 191.247 1064.68 212.979C1067.81 218.14 1072.64 217.506 1077.78 218.367C1072.14 228.419 1075.82 413.54 1075.9 445.247L2346.13 445.062L2705.17 445.056C2772.17 445.03 2839.33 443.997 2906.32 445.352L2905.79 449.805L1076.9 450.101C1076.66 473.353 1080.31 552.887 1075.43 569.391L1072.39 569.945L1071.99 573.218C1074.38 575.15 1073.18 574.953 1075.37 574.703C1078.73 587.539 1077.12 608.07 1070.79 619.512C1068.61 623.458 1065.74 625.931 1062.41 628.69C1051.26 633.905 1041.64 637.339 1029.42 637.77L1028.62 635.758L1030.42 633.647C1025.51 633.808 1020.56 633.891 1015.66 633.549C999.713 632.439 991.628 623.226 981.789 611.057C980.371 598.677 979.674 586.784 980.592 574.323L980.844 569.57L1052.71 569.504C1053.83 532.087 1049.61 486.019 1054.6 450.174L1057.46 450.084L1054.55 446.348C1051.72 421.756 1053.33 394.876 1053.18 369.963L1052.4 220.067C1016.34 221.004 980.28 219.38 944.244 219.976C902.372 220.669 858.453 224.409 816.81 219.858ZM990.804 160.499C972.894 165.844 959.921 173.427 950.662 192.118C948.241 197.006 947.118 201.03 947.584 206.621C950.076 211.523 950.665 212.657 954.982 215.641C974.037 217.709 993.8 216.339 1012.95 216.083L1053.09 215.857C1049.53 198.23 1046.64 179.2 1031.75 168.238C1019.58 159.28 1004.86 159.733 990.804 160.499Z"/>
	<path fill="#FDFEFE" transform="matrix(1.2932 0 0 1.29321 0.000488281 0)" d="M980.592 574.323L1052.64 574.349C1052.74 593.623 1054.22 610.345 1040.68 625.075C1037.61 628.41 1034.03 631.054 1030.42 633.647C1025.51 633.808 1020.56 633.891 1015.66 633.549C999.713 632.439 991.628 623.226 981.789 611.057C980.371 598.677 979.674 586.784 980.592 574.323Z"/>
	<path fill="#FDFEFE" transform="matrix(1.2932 0 0 1.29321 0.000488281 0)" d="M3197.43 219.839C3213.09 358.038 3207.01 506.442 3207.22 646.108L3208.48 1305.93L3208.42 3541.7L1499.67 3543.4L1005.98 3543.32C876.399 3543.17 743.268 3547.46 614.823 3527.07L610.328 3523.82C603.622 3499.68 606.546 3316 606.327 3279.85C777.036 3282.26 947.987 3280.11 1118.72 3280.07L2086.06 3280L2638.75 3280.26Q2718.99 3280.16 2799.22 3281.09C2834.52 3281.43 2870.59 3283.05 2905.81 3280.7L2905.86 3438.61C2905.88 3469.95 2903.98 3503 2907.86 3534.07C2916.29 3515.04 2912.13 3317.41 2912.17 3280.98L3092.75 3280.19C3126.06 3280.09 3161.72 3282.88 3194.68 3278.99C3195.29 3278.92 3195.89 3278.83 3196.5 3278.75L3195 3279.08L3195.04 3278.05C3160.14 3273.46 3123.32 3276.08 3088.17 3276.19L2912.16 3276.07C2912.03 3238.51 2909.98 3199.58 2912.85 3162.22L3100.97 3161.82C3128.92 3161.79 3174.96 3166.58 3200.59 3159.37C3170.95 3154.11 3136.72 3157.85 3106.43 3157.82L2912.21 3157.5L2912.33 3036.61C2969.2 3037.45 3026.21 3036.65 3083.1 3036.59C3120.69 3036.55 3159.49 3038.52 3196.9 3034.96L3198.27 3033.76L3200.54 3034.15C3175.46 3027.7 3099.01 3032.69 3067.57 3032.92C3015.81 3033.31 2963.99 3032.35 2912.23 3031.93L2912.28 2912.91Q3005.68 2912.06 3099.08 2912.25C3132.24 2912.28 3167.76 2915.53 3200.49 2910.05C3189.36 2904.71 2946.12 2908.15 2912.23 2908.07L2912.22 2790.22L3097.16 2790.4C3129.5 2790.46 3163.46 2792.79 3195.58 2789.24C3163.42 2781.92 3125.45 2785.98 3092.39 2785.99L2912.19 2785.76L2912.16 2668.8C3004.57 2667.83 3100.25 2672.12 3192.07 2667.23L3192.81 2665.86L3197.08 2666.53C3175.94 2660.01 3122.08 2663.93 3098.46 2663.94L2912.15 2664.04L2912.24 2545.63L3112.1 2546.04C3136.37 2546.07 3177.31 2549.81 3199.94 2544.67L3199.94 2543.36C3183.36 2538.16 3136.46 2541.71 3117.4 2541.71Q3014.8 2542.36 2912.2 2540.88L2912.26 2420.3L3107.05 2420.2C3132.98 2420.21 3176.42 2424.47 3200.44 2418.19L3199.4 2416.59C3104.18 2412.27 3007.56 2415.91 2912.2 2415.98L2912.25 2294.98C2947.15 2294.99 3157.64 2298.45 3173.51 2293.3C3143.48 2289.69 3111.6 2292.08 3081.32 2292.06L2912.16 2291.9L2912.32 2176.3L3100.8 2176.27C3121.18 2176.27 3174.81 2180.2 3191.72 2174.34C3192.2 2174.17 3192.66 2173.91 3193.13 2173.7C3195.17 2174.39 3194.22 2174.45 3195.96 2173.81C3174.89 2167.96 3131.86 2171.72 3107.86 2171.7L2912.18 2171.72L2912.28 2050.52L3101.86 2050.44C3131.81 2050.45 3166.91 2054.7 3196.07 2048.41C3176.61 2041.86 2951.88 2046 2912.14 2046.04L2912.31 1928.33L3097.38 1928.54C3128.1 1928.62 3163.2 1932.27 3193.33 1926.38C3157.01 1924.06 3119.97 1925.3 3083.56 1925.21Q2997.88 1925.06 2912.2 1923.65L2912.19 1804.06C2938.27 1803.82 2966.47 1806.98 2992.1 1801.45C2965.47 1800.12 2938.81 1800.11 2912.16 1799.87L2912.22 1684.48L3103.07 1684.47C3134.62 1684.44 3167.06 1686 3198.52 1683.47L3198.04 1682.28C3167.68 1677.92 3133.49 1680.63 3102.73 1680.49L2912.16 1679.79L2912.32 1560.37L3113.83 1560.27C3138.94 1560.25 3177.01 1563.89 3199.76 1558.8L3199.26 1556.74C3176.51 1553.05 3150.09 1555.83 3126.89 1555.84L2990.48 1555.83C2965.19 1555.82 2939.17 1557.01 2913.96 1555.1L2912.23 1554.96L2912.34 1434.43L3091.72 1434.22C3126.1 1434.17 3161.27 1435.89 3195.5 1432.75C3188.97 1426.93 2945.89 1429.74 2912.27 1429.67L2912.12 1314.98C2949.29 1315.02 2994.95 1318.65 3031.17 1314C3017 1308.98 2932.72 1311.97 2912.15 1311.88L2912.31 1190.15L3197.79 1189.2L3199.92 1187.37L3202.22 1187.89C3169.79 1181.56 3132.15 1185.6 3099.15 1185.65L2912.26 1185.49L2912.4 1066.32L3098.31 1066.09C3126.75 1066.09 3171.57 1071.16 3197.77 1063.22C3161.09 1060.42 3123.82 1061.74 3087.04 1061.76L2912.24 1061.57L2912.12 942.897C2940.21 943.124 3191.6 944.385 3195.12 940.842C3160.69 937.12 3125.07 938.979 3090.43 938.875L2912.12 938.034L2912.24 822.407L3096.13 822.531C3128.06 822.629 3164.22 826.196 3195.68 820.59C3179.67 814.135 2949.02 817.757 2912.2 817.745L2912.28 698.761C2970.41 699.377 3028.65 698.472 3086.79 698.373C3122.99 698.311 3160.53 700.671 3196.47 696.634L3196.31 695.543C3159.65 692.818 3122.47 694.207 3085.73 694.236L2912.24 694.015L2912.12 574.284C3008.39 574.185 3105.55 577.063 3201.69 571.795L3197.49 571.232L3201.7 571.665C3200.65 571.655 3199.59 571.798 3198.55 571.634C3166.83 566.632 3131.49 569.832 3099.19 569.808L2912.19 569.662L2912.15 448.972C2969.99 450.155 3028.04 449.084 3085.9 449.043C3122.42 449.017 3160.95 451.615 3197.19 447.326C3176.8 441.289 3125.55 445.338 3102.59 445.372Q3007.35 445.823 2912.11 444.996L2911.93 220.98L3098 221.08C3130.57 221.09 3165.09 223.45 3197.43 219.839Z"/>
</svg>
